<?xml version="1.0" encoding="UTF-8" standalone="no"?>
<!DOCTYPE svg PUBLIC "-//W3C//DTD SVG 1.1//EN" "http://www.w3.org/Graphics/SVG/1.1/DTD/svg11.dtd">
<svg width="100%" height="100%" viewBox="0 0 904 360" version="1.1" xmlns="http://www.w3.org/2000/svg" xmlns:xlink="http://www.w3.org/1999/xlink" xml:space="preserve" style="fill-rule:evenodd;clip-rule:evenodd;stroke-linejoin:round;stroke-miterlimit:1.41421;">
    <g id="horizontal" transform="matrix(1,0,0,1,-23,-224)">
        <g transform="matrix(1.22368,0,0,0.542312,-1815.13,-210.035)">
            <g transform="matrix(0.468702,0,0,1.05759,909.521,-56.3244)">
                <path d="M1744.36,996.608L1750.05,996.494C1771.47,996.039 1783.21,995.811 1785.26,995.811C1812.75,995.811 1833.36,1002.69 1847.07,1016.43C1860.78,1030.18 1867.63,1050.23 1867.63,1076.59C1867.63,1093.53 1864.31,1108.36 1857.66,1121.08C1851.02,1133.8 1841.35,1143.64 1828.67,1150.59C1815.98,1157.54 1800.83,1161.01 1783.21,1161.01C1781.08,1161.01 1776.01,1160.9 1768,1160.67C1759.99,1160.44 1754.15,1160.33 1750.51,1160.33C1737.75,1160.33 1728.1,1160.56 1721.57,1161.01L1721.57,1156.34C1727.19,1156.11 1731.27,1155.51 1733.82,1154.52C1736.36,1153.53 1738.11,1151.71 1739.06,1149.05C1740.01,1146.39 1740.48,1142.14 1740.48,1136.29L1740.48,1020.53C1740.48,1014.69 1740.01,1010.43 1739.06,1007.77C1738.11,1005.12 1736.36,1003.29 1733.82,1002.31C1731.27,1001.32 1727.19,1000.71 1721.57,1000.48L1721.57,995.811C1729.93,996.342 1737.52,996.608 1744.36,996.608ZM1763.5,1149.33C1764.41,1152.11 1766.1,1154.04 1768.57,1155.14C1771.04,1156.25 1774.74,1156.8 1779.68,1156.8C1796.23,1156.8 1809.22,1153.8 1818.64,1147.8C1828.06,1141.8 1834.69,1133.04 1838.52,1121.54C1842.36,1110.03 1844.28,1095.35 1844.28,1077.5C1844.28,1059.58 1842.19,1044.97 1838.01,1033.69C1833.83,1022.41 1827.02,1013.98 1817.56,1008.4C1808.1,1002.82 1795.4,1000.03 1779.45,1000.03C1774.59,1000.03 1770.94,1000.58 1768.51,1001.68C1766.08,1002.78 1764.41,1004.74 1763.5,1007.55C1762.59,1010.36 1762.13,1014.53 1762.13,1020.08L1762.13,1136.75C1762.13,1142.37 1762.59,1146.56 1763.5,1149.33Z" style="fill:rgb(108,111,112);fill-rule:nonzero;"/>
            </g>
            <g transform="matrix(0.468702,0,0,1.05759,909.521,-56.3244)">
                <path d="M1991.36,1135.43C1991.36,1142.98 1991.82,1151.51 1992.73,1161.01C1983.68,1160.62 1968.41,1160.43 1946.93,1160.43C1921.34,1160.43 1902.01,1160.62 1888.92,1161.01L1888.92,1157.01C1893.74,1156.81 1897.24,1156.29 1899.42,1155.45C1901.6,1154.6 1903.1,1153.04 1903.91,1150.76C1904.73,1148.48 1905.13,1144.83 1905.13,1139.82L1905.13,1040.6C1905.13,1035.59 1904.73,1031.94 1903.91,1029.66C1903.1,1027.39 1901.6,1025.82 1899.42,1024.98C1897.24,1024.13 1893.74,1023.61 1888.92,1023.42L1888.92,1019.41C1902.01,1019.8 1921.34,1020 1946.93,1020C1966.53,1020 1980.46,1019.8 1988.73,1019.41C1987.81,1028.13 1987.36,1036.01 1987.36,1043.04C1987.36,1048.25 1987.55,1052.39 1987.94,1055.45L1983.35,1055.45C1982.38,1046.79 1981.16,1040.34 1979.69,1036.11C1978.23,1031.88 1975.75,1028.8 1972.27,1026.88C1968.79,1024.96 1963.53,1024 1956.5,1024L1939.9,1024C1935.08,1024 1931.58,1024.39 1929.4,1025.17C1927.22,1025.95 1925.72,1027.47 1924.91,1029.71C1924.09,1031.96 1923.69,1035.59 1923.69,1040.6L1923.69,1087.77L1936.97,1087.77C1943.67,1087.77 1948.13,1085.77 1950.35,1081.76C1952.56,1077.76 1953.93,1073.67 1954.45,1069.51C1954.97,1065.34 1955.33,1062.64 1955.52,1061.4L1960.11,1061.4C1959.66,1067.98 1959.43,1074.26 1959.43,1080.25L1959.53,1089.82C1959.53,1096.59 1959.92,1106.07 1960.7,1118.24L1956.11,1118.24C1955.98,1117.33 1955.6,1114.11 1954.99,1108.57C1954.37,1103.04 1952.56,1098.85 1949.57,1096.02C1946.57,1093.19 1942.37,1091.77 1936.97,1091.77L1923.69,1091.77L1923.69,1139.82C1923.69,1144.83 1924.09,1148.46 1924.91,1150.71C1925.72,1152.96 1927.22,1154.47 1929.4,1155.25C1931.58,1156.03 1935.08,1156.42 1939.9,1156.42L1954.55,1156.42C1962.88,1156.42 1969.21,1155.32 1973.54,1153.1C1977.87,1150.89 1980.99,1147.34 1982.91,1142.46C1984.84,1137.58 1986.32,1130.41 1987.36,1120.97L1991.95,1120.97C1991.56,1124.55 1991.36,1129.37 1991.36,1135.43Z" style="fill:rgb(108,111,112);fill-rule:nonzero;"/>
            </g>
            <g transform="matrix(0.468702,0,0,1.05759,909.521,-56.3244)">
                <path d="M2125.98,1025.42C2123.74,1026.56 2122.19,1028.43 2121.34,1031.03C2120.5,1033.64 2120.07,1037.51 2120.07,1042.65L2120.07,1161.99L2115.48,1161.99L2031.5,1032.2L2031.5,1137.77C2031.5,1142.91 2031.96,1146.79 2032.87,1149.39C2033.78,1152 2035.49,1153.87 2037.99,1155.01C2040.5,1156.15 2044.39,1156.81 2049.66,1157.01L2049.66,1161.01C2044.91,1160.62 2038.11,1160.43 2029.25,1160.43C2021.31,1160.43 2015.12,1160.62 2010.7,1161.01L2010.7,1157.01C2015.32,1156.81 2018.76,1156.15 2021,1155.01C2023.25,1153.87 2024.79,1152 2025.64,1149.39C2026.49,1146.79 2026.91,1142.91 2026.91,1137.77L2026.91,1040.6C2026.91,1035.59 2026.5,1031.94 2025.69,1029.66C2024.88,1027.39 2023.38,1025.82 2021.2,1024.98C2019.02,1024.13 2015.52,1023.61 2010.7,1023.42L2010.7,1019.41C2015.06,1019.8 2021.25,1020 2029.25,1020C2035.24,1020 2040.45,1019.8 2044.88,1019.41L2115.48,1128.2L2115.48,1042.65C2115.48,1037.51 2115.04,1033.64 2114.16,1031.03C2113.29,1028.43 2111.58,1026.56 2109.04,1025.42C2106.5,1024.28 2102.59,1023.61 2097.32,1023.42L2097.32,1019.41C2102.07,1019.8 2108.88,1020 2117.73,1020C2125.67,1020 2131.86,1019.8 2136.28,1019.41L2136.28,1023.42C2131.66,1023.61 2128.23,1024.28 2125.98,1025.42Z" style="fill:rgb(108,111,112);fill-rule:nonzero;"/>
            </g>
            <g transform="matrix(0.468702,0,0,1.05759,909.521,-56.3244)">
                <path d="M2150.74,1045C2150.74,1037.18 2150.25,1028.66 2149.27,1019.41C2160.34,1019.8 2179.16,1020 2205.72,1020C2232.09,1020 2250.8,1019.8 2261.87,1019.41C2260.96,1028.92 2260.5,1037.44 2260.5,1045C2260.5,1051.7 2260.7,1057.17 2261.09,1061.4L2256.5,1061.4C2255.46,1051.05 2254.14,1043.39 2252.54,1038.4C2250.95,1033.42 2248.15,1029.78 2244.14,1027.47C2240.14,1025.16 2234.01,1024 2225.74,1024L2214.9,1024L2214.9,1137.77C2214.9,1143.3 2215.42,1147.36 2216.46,1149.93C2217.5,1152.5 2219.39,1154.27 2222.12,1155.25C2224.86,1156.23 2229.19,1156.81 2235.11,1157.01L2235.11,1161.01C2228.08,1160.62 2218.28,1160.43 2205.72,1160.43C2192.37,1160.43 2182.51,1160.62 2176.13,1161.01L2176.13,1157.01C2182.05,1156.81 2186.38,1156.23 2189.12,1155.25C2191.85,1154.27 2193.74,1152.5 2194.78,1149.93C2195.82,1147.36 2196.34,1143.3 2196.34,1137.77L2196.34,1024L2185.5,1024C2177.24,1024 2171.1,1025.16 2167.1,1027.47C2163.09,1029.78 2160.29,1033.42 2158.7,1038.4C2157.1,1043.39 2155.78,1051.05 2154.74,1061.4L2150.15,1061.4C2150.54,1057.17 2150.74,1051.7 2150.74,1045Z" style="fill:rgb(108,111,112);fill-rule:nonzero;"/>
            </g>
            <g transform="matrix(0.468702,0,0,1.05759,909.521,-56.3244)">
                <path d="M2416.28,1156.34L2416.28,1161.01C2409.9,1160.56 2401.55,1160.33 2391.22,1160.33C2377.92,1160.33 2367.97,1160.56 2361.37,1161.01L2361.37,1156.34C2367.29,1156.11 2371.52,1155.39 2374.07,1154.18C2376.61,1152.96 2377.89,1150.8 2377.89,1147.68C2377.89,1145.02 2376.97,1141.38 2375.15,1136.75L2360.8,1098.46L2304.51,1098.46L2294.94,1123.19C2291.83,1131.09 2290.27,1137.47 2290.27,1142.33C2290.27,1147.27 2291.92,1150.8 2295.23,1152.92C2298.53,1155.05 2303.64,1156.19 2310.55,1156.34L2310.55,1161.01C2301.66,1160.56 2292.7,1160.33 2283.66,1160.33C2276.68,1160.33 2270.87,1160.56 2266.23,1161.01L2266.23,1156.34C2273.98,1154.59 2280.09,1147.83 2284.58,1136.06L2339.49,994.671L2343.25,994.671L2400.1,1141.42C2403.9,1151.06 2409.29,1156.04 2416.28,1156.34ZM2333,1024.18L2306.22,1093.79L2359.09,1093.79L2333,1024.18Z" style="fill:rgb(108,111,112);fill-rule:nonzero;"/>
            </g>
            <g transform="matrix(0.468702,0,0,1.05759,909.521,-56.3244)">
                <path d="M2538.38,1025.42C2536.14,1026.56 2534.59,1028.43 2533.74,1031.03C2532.9,1033.64 2532.48,1037.51 2532.48,1042.65L2532.48,1161.99L2527.89,1161.99L2443.9,1032.2L2443.9,1137.77C2443.9,1142.91 2444.36,1146.79 2445.27,1149.39C2446.18,1152 2447.89,1153.87 2450.39,1155.01C2452.9,1156.15 2456.79,1156.81 2462.07,1157.01L2462.07,1161.01C2457.31,1160.62 2450.51,1160.43 2441.66,1160.43C2433.71,1160.43 2427.53,1160.62 2423.1,1161.01L2423.1,1157.01C2427.72,1156.81 2431.16,1156.15 2433.4,1155.01C2435.65,1153.87 2437.2,1152 2438.04,1149.39C2438.89,1146.79 2439.31,1142.91 2439.31,1137.77L2439.31,1040.6C2439.31,1035.59 2438.91,1031.94 2438.09,1029.66C2437.28,1027.39 2435.78,1025.82 2433.6,1024.98C2431.42,1024.13 2427.92,1023.61 2423.1,1023.42L2423.1,1019.41C2427.46,1019.8 2433.65,1020 2441.66,1020C2447.64,1020 2452.85,1019.8 2457.28,1019.41L2527.89,1128.2L2527.89,1042.65C2527.89,1037.51 2527.45,1033.64 2526.57,1031.03C2525.69,1028.43 2523.98,1026.56 2521.44,1025.42C2518.9,1024.28 2514.99,1023.61 2509.72,1023.42L2509.72,1019.41C2514.47,1019.8 2521.28,1020 2530.13,1020C2538.07,1020 2544.26,1019.8 2548.69,1019.41L2548.69,1023.42C2544.06,1023.61 2540.63,1024.28 2538.38,1025.42Z" style="fill:rgb(108,111,112);fill-rule:nonzero;"/>
            </g>
            <g transform="matrix(0.468702,0,0,1.05759,909.521,-56.3244)">
                <path d="M2682.09,1157.01L2682.09,1161.01C2676.62,1160.62 2669.45,1160.43 2660.6,1160.43C2649.21,1160.43 2640.68,1160.62 2635.01,1161.01L2635.01,1157.01C2640.09,1156.81 2643.72,1156.19 2645.9,1155.15C2648.08,1154.11 2649.18,1152.26 2649.18,1149.59C2649.18,1147.31 2648.39,1144.18 2646.83,1140.21L2634.53,1107.4L2586.28,1107.4L2578.08,1128.59C2575.41,1135.36 2574.08,1140.83 2574.08,1145C2574.08,1149.23 2575.49,1152.26 2578.33,1154.08C2581.16,1155.9 2585.53,1156.88 2591.46,1157.01L2591.46,1161.01C2583.84,1160.62 2576.16,1160.43 2568.41,1160.43C2562.42,1160.43 2557.44,1160.62 2553.47,1161.01L2553.47,1157.01C2560.11,1155.51 2565.35,1149.72 2569.19,1139.63L2616.26,1018.43L2619.49,1018.43L2668.22,1144.22C2671.47,1152.48 2676.1,1156.75 2682.09,1157.01ZM2610.7,1043.73L2587.75,1103.39L2633.06,1103.39L2610.7,1043.73Z" style="fill:rgb(108,111,112);fill-rule:nonzero;"/>
            </g>
        </g>
        <g transform="matrix(11.6754,0.202089,-0.202089,11.6754,-3871.14,-1057.21)">
            <path d="M350.372,106.765C350.372,106.765 350.669,106.97 350.714,106.918C350.759,106.868 350.563,106.69 350.58,106.639C350.6,106.579 350.819,106.782 350.867,106.701C350.883,106.673 350.714,106.467 350.714,106.467C350.7,106.439 350.676,106.376 350.635,106.329C350.606,106.296 350.594,106.258 350.54,106.249C350.48,106.239 350.42,106.302 350.4,106.378C350.379,106.454 350.356,106.434 350.234,106.52C350.168,106.567 350.147,106.64 350.251,106.717C350.296,106.749 350.372,106.765 350.372,106.765Z" style="fill:rgb(108,111,112);fill-rule:nonzero;"/>
        </g>
        <g transform="matrix(2.79665,0,0,2.79665,-969.092,-371.454)">
            <path d="M424.563,243.858C424.52,242.445 424.41,239.326 424.366,237.839C424.323,236.353 424.256,235.547 423.994,234.523C423.732,233.5 423.578,232.281 423.359,230.112C423.14,227.943 423.178,228.355 422.227,227.57C421.23,226.746 420.342,226.333 419.817,225.796C419.291,225.259 419.569,225.889 419.569,226.304C419.569,226.719 421.422,228.326 421.333,229.161C421.301,229.449 421.301,229.689 421.059,229.777C420.328,230.051 419.665,226.434 419.131,226.66C418.598,226.888 420.246,231.038 420.246,231.038C420.246,231.038 420.888,231.708 421.238,232.478C421.589,233.249 421.736,233.457 421.89,233.945C422.044,234.432 422.044,234.847 422.066,235.212C422.088,235.577 422.153,237.863 422.131,238.497C422.111,239.129 421.933,240.983 421.956,242.25C421.977,243.517 421.559,247.124 421.385,247.613C421.21,248.1 420.816,248.514 420.597,248.832C420.378,249.147 419.479,250.05 418.799,250.683C418.121,251.317 416.47,252.458 416.032,252.604C415.883,252.654 415.686,252.765 415.479,252.886C415.313,252.694 415.091,252.532 414.827,252.37C414.796,252.351 414.761,252.337 414.727,252.321C413.275,251.648 412.852,251.384 412.639,251.211C412.379,250.999 411.973,249.619 412.154,249.229C412.231,249.062 412.195,248.997 412.944,248.533C412.961,248.522 413.485,248.263 413.779,248.187C413.992,248.132 414.135,248.059 414.287,247.907C414.367,247.826 414.474,247.593 414.367,247.355C414.242,247.079 413.961,246.997 414.216,246.698C414.237,246.674 414.247,246.673 414.258,246.662C414.366,246.547 414.362,246.415 414.362,246.393C414.36,246.318 414.263,246.093 414.054,246.041C413.896,246.002 414.16,245.871 414.2,245.804C414.229,245.756 414.214,245.707 414.212,245.698C414.197,245.613 413.812,245.098 413.946,244.973C414.109,244.821 414.242,244.715 414.302,244.63C414.648,244.137 413.712,243.793 413.245,243.324C413.137,243.215 412.997,243.156 412.987,243.051C412.79,241.005 410.968,239.889 410.074,239.677C408.951,239.411 407.783,239.459 406.624,240.069C405.326,240.753 404.677,241.977 403.895,244.692C402.981,242.987 402.074,241.906 401.161,240.693C399.629,238.656 398.585,237.341 397.109,235.633C390.932,228.491 386.049,230.635 385.902,234.133C385.756,237.63 388.698,243.074 390.631,246.103C392.096,248.397 395.349,250.494 398.279,252.202C398.239,252.23 398.2,252.258 398.164,252.289C397.585,252.726 396.948,252.871 396.372,252.879C387.569,247.496 385.075,246.813 381.003,245.501C365.226,240.419 369.77,248.617 371.57,251.746C373.369,254.873 377.305,257.644 380.655,259.092C384.491,260.75 392.015,259.514 392.015,259.514C391.499,260.664 391.224,261.089 390.962,262.96C390.598,265.552 390.031,269.952 391.386,264.474C391.817,262.728 393.49,261.424 393.933,261.267C394.135,261.196 391.544,265.938 392.352,265.278C392.545,265.121 392.89,264.739 393.044,264.565C395.802,261.456 397.327,259.745 396.763,262.098C396.669,262.489 396.511,263.883 394.886,266.822C394.047,268.339 397.905,264.29 399.526,263.472C399.92,263.274 399.47,265.687 399.47,266.797C399.47,267.909 398.621,268.481 397.379,269.053C396.138,269.627 395.292,270.265 394.747,270.435C394.2,270.602 392.172,271.914 391.236,271.949C390.295,271.982 390.295,271.545 388.842,271.512C387.39,271.478 386.636,271.504 385.79,271.2C384.941,270.897 383.938,271.208 384.965,271.747C385.997,272.286 388.722,272.353 388.145,272.992C387.571,273.633 384.087,274.874 383.357,275.445C383.337,275.461 382.801,275.779 384.051,275.998C384.53,276.082 385.514,276.111 386.19,275.99C389.381,275.42 389.962,275.024 390.751,274.598C391.539,274.172 395.111,273.162 396.018,272.924C396.924,272.69 400.499,270.939 401.376,270.233C402.253,269.524 402.527,268.179 402.83,266.999C403.075,266.035 403.465,264.144 403.515,263.066C403.624,263.955 403.874,265.489 404.222,266.427C404.797,267.977 404.888,270.737 403.919,272.655C402.95,274.574 402.345,275.651 400.77,277.941C399.194,280.23 399.47,280.297 396.835,283.294C394.2,286.29 392.047,287.392 390.535,291.668C389.02,295.944 389.565,298.638 389.917,300.071C390.079,300.728 391.002,303.328 390.994,301.44C390.985,299.64 391.443,296.7 393.804,293.975C396.165,291.248 395.383,292.857 395.586,293.845C395.799,294.878 396.556,291.235 398.039,290.729C399.523,290.225 398.542,293.024 399.871,292.116C401.194,291.205 401.15,290.943 401.956,290.463C402.257,290.282 403.414,289.315 402.26,292.193C402.075,292.656 401.708,293.43 403.422,292.925C403.499,292.902 403.553,292.892 405.254,292.474C405.373,292.445 404.664,292.538 403.736,293.047C403.22,293.33 404.365,295.145 404.641,296.246C405.004,297.695 404.859,298.308 405.402,299.453C405.946,300.598 406.309,303.156 406.34,303.258C406.371,303.358 406.643,305.411 406.462,306.354C406.28,307.297 405.372,307.904 405.645,309.62C405.979,311.726 406.631,312.184 407.006,313.188C407.391,314.224 407.405,315.319 408.348,315.201C408.789,315.146 408.633,310.148 408.922,308.119C408.987,307.664 409.608,306.644 409.537,306.21C409.474,305.819 409.087,302.122 409.237,303.405C409.28,303.776 409.792,306.204 409.901,306.305C410.083,306.475 409.525,307.265 409.147,308.359C408.692,309.674 408.957,311.615 408.789,314.099C408.679,315.713 408.338,318.038 408.155,318.744C407.974,319.45 408.016,320.028 408.186,320.696C408.303,321.158 407.883,321.302 407.944,322.043C408.004,322.784 408.255,323.202 408.247,323.826C408.205,327.181 408.383,327.318 408.504,328.261L409.056,330.231C409.207,330.567 409.609,330.722 410.082,330.283C410.197,330.176 410.282,329.999 410.393,329.796C411.059,328.583 411.075,327.477 411.08,326.284C411.083,325.615 410.542,322.842 410.366,321.403C410.186,319.921 410.366,318.844 411.516,316.085C411.63,315.814 411.733,315.56 411.829,315.321C412.707,313.125 412.902,312.151 413.395,310.025C413.941,307.667 413.335,305.783 413.395,304.638C413.457,303.493 413.578,302.215 413.698,300.464C413.82,298.712 413.941,297.166 415.633,288.68C417.33,280.197 416.724,278.918 415.028,274.598C413.335,270.276 415.453,265.25 416.058,263.296C416.236,262.727 416.33,261.756 416.366,260.668C416.441,260.363 416.528,260.028 416.628,259.726C416.914,258.873 417.176,258.727 417.922,257.799C418.669,256.874 419.501,255.948 420.859,254.607C422.22,253.266 422.921,251.608 423.599,250.39C424.278,249.173 424.319,248.732 424.44,247.93C424.501,247.525 424.563,243.858 424.563,243.858Z" style="fill:rgb(108,111,112);fill-rule:nonzero;"/>
        </g>
        <g transform="matrix(0.6578,0,0,0.574845,-762.347,-266.218)">
            <g transform="matrix(0.871912,0,0,0.997736,206.435,2.80215)">
                <path d="M1620.94,1285.45C1622.85,1288.24 1625.79,1289.64 1629.76,1289.64C1631.28,1289.64 1632.69,1289.32 1634.01,1288.69C1635.32,1288.06 1636.38,1287.08 1637.2,1285.75C1638.01,1284.41 1638.42,1282.75 1638.42,1280.75C1638.42,1279.04 1638,1277.5 1637.16,1276.14C1636.33,1274.79 1635.19,1273.55 1633.76,1272.42C1632.33,1271.29 1630.42,1270.01 1628.03,1268.58C1625.39,1266.99 1623.26,1265.57 1621.65,1264.31C1620.05,1263.05 1618.73,1261.55 1617.7,1259.8C1616.67,1258.06 1616.15,1256 1616.15,1253.63C1616.15,1251.12 1616.72,1248.99 1617.86,1247.25C1619,1245.52 1620.52,1244.22 1622.42,1243.37C1624.32,1242.51 1626.41,1242.08 1628.68,1242.08C1630.05,1242.08 1631.23,1242.19 1632.22,1242.42C1633.2,1242.65 1634.02,1242.93 1634.67,1243.27C1635.33,1243.6 1636.04,1244.03 1636.82,1244.55C1637.82,1245.18 1638.58,1245.5 1639.1,1245.5C1639.51,1245.5 1639.83,1245.26 1640.05,1244.8C1640.26,1244.33 1640.44,1243.59 1640.57,1242.57L1642.1,1242.57C1641.88,1245.17 1641.77,1249.71 1641.77,1256.17L1640.24,1256.17C1640.07,1253.89 1639.57,1251.79 1638.76,1249.86C1637.94,1247.93 1636.75,1246.36 1635.18,1245.15C1633.61,1243.95 1631.65,1243.35 1629.3,1243.35C1627.74,1243.35 1626.34,1243.67 1625.1,1244.33C1623.87,1244.98 1622.9,1245.89 1622.21,1247.06C1621.51,1248.23 1621.16,1249.58 1621.16,1251.1C1621.16,1253.5 1621.89,1255.45 1623.35,1256.92C1624.8,1258.4 1626.5,1259.73 1628.44,1260.91C1630.38,1262.09 1631.69,1262.89 1632.36,1263.3C1635.16,1265.06 1637.38,1266.59 1639,1267.88C1640.63,1269.17 1641.93,1270.66 1642.91,1272.37C1643.89,1274.07 1644.37,1276.05 1644.37,1278.31C1644.37,1281.04 1643.75,1283.36 1642.49,1285.26C1641.23,1287.16 1639.53,1288.59 1637.39,1289.54C1635.25,1290.49 1632.86,1290.97 1630.21,1290.97C1628.09,1290.97 1626.34,1290.75 1624.97,1290.31C1623.61,1289.86 1622.32,1289.26 1621.1,1288.5C1620.1,1287.87 1619.34,1287.55 1618.82,1287.55C1618.41,1287.55 1618.09,1287.79 1617.88,1288.25C1617.66,1288.72 1617.49,1289.46 1617.36,1290.48L1615.83,1290.48C1616,1288.05 1616.09,1282.73 1616.09,1274.5L1617.62,1274.5C1617.92,1279.01 1619.03,1282.67 1620.94,1285.45Z" style="fill:rgb(108,111,112);fill-rule:nonzero;"/>
            </g>
            <g transform="matrix(0.871912,0,0,0.997736,206.435,2.80215)">
                <path d="M1650.04,1251.36C1650.04,1248.75 1649.88,1245.91 1649.55,1242.83C1653.24,1242.96 1659.51,1243.02 1668.37,1243.02C1677.15,1243.02 1683.39,1242.96 1687.08,1242.83C1686.78,1246 1686.63,1248.84 1686.63,1251.36C1686.63,1253.59 1686.69,1255.41 1686.82,1256.83L1685.29,1256.83C1684.94,1253.37 1684.51,1250.82 1683.97,1249.16C1683.44,1247.5 1682.51,1246.28 1681.17,1245.51C1679.84,1244.74 1677.79,1244.36 1675.04,1244.36L1671.42,1244.36L1671.42,1282.28C1671.42,1284.12 1671.6,1285.48 1671.95,1286.33C1672.29,1287.19 1672.92,1287.78 1673.83,1288.11C1674.75,1288.43 1676.19,1288.63 1678.16,1288.69L1678.16,1290.03C1675.82,1289.9 1672.55,1289.83 1668.37,1289.83C1663.92,1289.83 1660.63,1289.9 1658.5,1290.03L1658.5,1288.69C1660.48,1288.63 1661.92,1288.43 1662.83,1288.11C1663.74,1287.78 1664.37,1287.19 1664.72,1286.33C1665.07,1285.48 1665.24,1284.12 1665.24,1282.28L1665.24,1244.36L1661.63,1244.36C1658.87,1244.36 1656.83,1244.74 1655.49,1245.51C1654.16,1246.28 1653.22,1247.5 1652.69,1249.16C1652.16,1250.82 1651.72,1253.37 1651.37,1256.83L1649.84,1256.83C1649.97,1255.41 1650.04,1253.59 1650.04,1251.36Z" style="fill:rgb(108,111,112);fill-rule:nonzero;"/>
            </g>
            <g transform="matrix(0.871912,0,0,0.997736,206.435,2.80215)">
                <path d="M1724.89,1244.75C1728.07,1246.66 1730.53,1249.43 1732.28,1253.07C1734.03,1256.7 1734.9,1261.02 1734.9,1266.04C1734.9,1270.94 1734,1275.28 1732.2,1279.06C1730.4,1282.83 1727.89,1285.76 1724.68,1287.85C1721.47,1289.93 1717.81,1290.97 1713.71,1290.97C1709.48,1290.97 1705.77,1290.02 1702.59,1288.11C1699.41,1286.2 1696.95,1283.42 1695.2,1279.79C1693.46,1276.15 1692.58,1271.83 1692.58,1266.82C1692.58,1261.91 1693.49,1257.57 1695.29,1253.8C1697.09,1250.02 1699.59,1247.09 1702.81,1245.01C1706.02,1242.92 1709.67,1241.88 1713.78,1241.88C1718.01,1241.88 1721.71,1242.84 1724.89,1244.75ZM1706,1246.07C1703.83,1248.05 1702.15,1250.82 1700.98,1254.37C1699.81,1257.91 1699.23,1261.98 1699.23,1266.56C1699.23,1271.18 1699.88,1275.25 1701.18,1278.77C1702.48,1282.28 1704.25,1284.99 1706.5,1286.9C1708.75,1288.81 1711.24,1289.77 1713.97,1289.77C1716.81,1289.77 1719.32,1288.78 1721.47,1286.79C1723.63,1284.8 1725.3,1282.04 1726.47,1278.49C1727.64,1274.94 1728.23,1270.88 1728.23,1266.3C1728.23,1261.67 1727.58,1257.61 1726.28,1254.09C1724.97,1250.58 1723.2,1247.86 1720.97,1245.95C1718.73,1244.04 1716.25,1243.09 1713.52,1243.09C1710.67,1243.09 1708.17,1244.08 1706,1246.07Z" style="fill:rgb(108,111,112);fill-rule:nonzero;"/>
            </g>
            <g transform="matrix(0.871912,0,0,0.997736,206.435,2.80215)">
                <path d="M1789.7,1244.68C1788.98,1244.96 1788.48,1245.49 1788.21,1246.25C1787.93,1247.01 1787.8,1248.22 1787.8,1249.89L1787.8,1282.96C1787.8,1284.63 1787.93,1285.85 1788.21,1286.61C1788.48,1287.37 1788.98,1287.89 1789.7,1288.17C1790.43,1288.45 1791.6,1288.63 1793.2,1288.69L1793.2,1290.03C1791.12,1289.9 1788.3,1289.83 1784.74,1289.83C1780.92,1289.83 1778.08,1289.9 1776.21,1290.03L1776.21,1288.69C1777.82,1288.63 1778.98,1288.45 1779.69,1288.17C1780.41,1287.89 1780.9,1287.37 1781.17,1286.61C1781.45,1285.85 1781.58,1284.63 1781.58,1282.96L1781.58,1247.29L1765.53,1290.35L1764.46,1290.35L1747.66,1247.09L1747.66,1282.28C1747.66,1284 1747.81,1285.29 1748.12,1286.15C1748.42,1287.02 1748.99,1287.65 1749.83,1288.03C1750.66,1288.41 1751.96,1288.63 1753.72,1288.69L1753.72,1290.03C1752.13,1289.9 1749.87,1289.83 1746.91,1289.83C1744.27,1289.83 1742.2,1289.9 1740.73,1290.03L1740.73,1288.69C1742.27,1288.63 1743.41,1288.41 1744.16,1288.03C1744.91,1287.65 1745.43,1287.02 1745.71,1286.15C1745.99,1285.29 1746.13,1284 1746.13,1282.28L1746.13,1249.89C1746.13,1248.22 1746,1247.01 1745.73,1246.25C1745.45,1245.49 1744.95,1244.96 1744.23,1244.68C1743.5,1244.4 1742.33,1244.23 1740.73,1244.16L1740.73,1242.83C1742.18,1242.96 1744.24,1243.02 1746.91,1243.02C1749.26,1243.02 1751.16,1242.96 1752.61,1242.83L1767.26,1281.5L1781.58,1243.02L1784.74,1243.02C1788.3,1243.02 1791.12,1242.96 1793.2,1242.83L1793.2,1244.16C1791.6,1244.23 1790.43,1244.4 1789.7,1244.68Z" style="fill:rgb(108,111,112);fill-rule:nonzero;"/>
            </g>
            <g transform="matrix(0.871912,0,0,0.997736,206.435,2.80215)">
                <path d="M1838.45,1288.69L1838.45,1290.03C1836.63,1289.9 1834.24,1289.83 1831.29,1289.83C1827.49,1289.83 1824.65,1289.9 1822.76,1290.03L1822.76,1288.69C1824.45,1288.63 1825.66,1288.42 1826.39,1288.08C1827.12,1287.73 1827.48,1287.11 1827.48,1286.22C1827.48,1285.46 1827.22,1284.42 1826.7,1283.09L1822.6,1272.16L1806.52,1272.16L1803.78,1279.22C1802.89,1281.48 1802.45,1283.3 1802.45,1284.69C1802.45,1286.1 1802.92,1287.11 1803.86,1287.72C1804.81,1288.32 1806.27,1288.65 1808.24,1288.69L1808.24,1290.03C1805.7,1289.9 1803.14,1289.83 1800.56,1289.83C1798.56,1289.83 1796.9,1289.9 1795.58,1290.03L1795.58,1288.69C1797.79,1288.19 1799.54,1286.26 1800.82,1282.9L1816.51,1242.5L1817.58,1242.5L1833.83,1284.43C1834.91,1287.18 1836.45,1288.61 1838.45,1288.69ZM1814.65,1250.93L1807.01,1270.82L1822.11,1270.82L1814.65,1250.93Z" style="fill:rgb(108,111,112);fill-rule:nonzero;"/>
            </g>
            <g transform="matrix(0.871912,0,0,0.997736,206.435,2.80215)">
                <path d="M1837.08,1251.36C1837.08,1248.75 1836.92,1245.91 1836.59,1242.83C1840.28,1242.96 1846.56,1243.02 1855.41,1243.02C1864.2,1243.02 1870.44,1242.96 1874.13,1242.83C1873.82,1246 1873.67,1248.84 1873.67,1251.36C1873.67,1253.59 1873.74,1255.41 1873.87,1256.83L1872.34,1256.83C1871.99,1253.37 1871.55,1250.82 1871.02,1249.16C1870.49,1247.5 1869.55,1246.28 1868.22,1245.51C1866.88,1244.74 1864.84,1244.36 1862.08,1244.36L1858.47,1244.36L1858.47,1282.28C1858.47,1284.12 1858.64,1285.48 1858.99,1286.33C1859.34,1287.19 1859.97,1287.78 1860.88,1288.11C1861.79,1288.43 1863.23,1288.63 1865.21,1288.69L1865.21,1290.03C1862.86,1289.9 1859.6,1289.83 1855.41,1289.83C1850.96,1289.83 1847.67,1289.9 1845.55,1290.03L1845.55,1288.69C1847.52,1288.63 1848.96,1288.43 1849.88,1288.11C1850.79,1287.78 1851.42,1287.19 1851.76,1286.33C1852.11,1285.48 1852.29,1284.12 1852.29,1282.28L1852.29,1244.36L1848.67,1244.36C1845.91,1244.36 1843.87,1244.74 1842.54,1245.51C1841.2,1246.28 1840.27,1247.5 1839.74,1249.16C1839.2,1250.82 1838.77,1253.37 1838.42,1256.83L1836.89,1256.83C1837.02,1255.41 1837.08,1253.59 1837.08,1251.36Z" style="fill:rgb(108,111,112);fill-rule:nonzero;"/>
            </g>
            <g transform="matrix(0.871912,0,0,0.997736,206.435,2.80215)">
                <path d="M1911.94,1244.75C1915.12,1246.66 1917.58,1249.43 1919.33,1253.07C1921.07,1256.7 1921.95,1261.02 1921.95,1266.04C1921.95,1270.94 1921.05,1275.28 1919.24,1279.06C1917.44,1282.83 1914.94,1285.76 1911.73,1287.85C1908.51,1289.93 1904.86,1290.97 1900.76,1290.97C1896.52,1290.97 1892.82,1290.02 1889.64,1288.11C1886.46,1286.2 1884,1283.42 1882.25,1279.79C1880.5,1276.15 1879.63,1271.83 1879.63,1266.82C1879.63,1261.91 1880.53,1257.57 1882.33,1253.8C1884.13,1250.02 1886.64,1247.09 1889.85,1245.01C1893.06,1242.92 1896.72,1241.88 1900.82,1241.88C1905.05,1241.88 1908.76,1242.84 1911.94,1244.75ZM1893.04,1246.07C1890.87,1248.05 1889.2,1250.82 1888.03,1254.37C1886.86,1257.91 1886.27,1261.98 1886.27,1266.56C1886.27,1271.18 1886.92,1275.25 1888.22,1278.77C1889.52,1282.28 1891.3,1284.99 1893.54,1286.9C1895.79,1288.81 1898.28,1289.77 1901.02,1289.77C1903.86,1289.77 1906.36,1288.78 1908.52,1286.79C1910.68,1284.8 1912.34,1282.04 1913.52,1278.49C1914.69,1274.94 1915.27,1270.88 1915.27,1266.3C1915.27,1261.67 1914.62,1257.61 1913.32,1254.09C1912.02,1250.58 1910.25,1247.86 1908.01,1245.95C1905.78,1244.04 1903.29,1243.09 1900.56,1243.09C1897.72,1243.09 1895.21,1244.08 1893.04,1246.07Z" style="fill:rgb(108,111,112);fill-rule:nonzero;"/>
            </g>
            <g transform="matrix(0.871912,0,0,0.997736,206.435,2.80215)">
                <path d="M1941.27,1244.68C1940.54,1244.96 1940.04,1245.49 1939.77,1246.25C1939.5,1247.01 1939.36,1248.22 1939.36,1249.89L1939.36,1282.96C1939.36,1284.63 1939.5,1285.85 1939.77,1286.59C1940.04,1287.34 1940.54,1287.85 1941.27,1288.11C1941.99,1288.37 1943.16,1288.5 1944.77,1288.5L1949.65,1288.5C1952.43,1288.5 1954.54,1288.11 1955.98,1287.33C1957.42,1286.55 1958.46,1285.3 1959.1,1283.58C1959.74,1281.87 1960.24,1279.35 1960.59,1276.03L1962.12,1276.03C1961.99,1277.42 1961.92,1279.24 1961.92,1281.5C1961.92,1284.02 1962.07,1286.86 1962.38,1290.03C1959.36,1289.9 1954.27,1289.83 1947.11,1289.83C1938.58,1289.83 1932.13,1289.9 1927.77,1290.03L1927.77,1288.69C1929.38,1288.63 1930.55,1288.45 1931.27,1288.17C1932,1287.89 1932.5,1287.37 1932.77,1286.61C1933.04,1285.85 1933.18,1284.63 1933.18,1282.96L1933.18,1249.89C1933.18,1248.22 1933.04,1247.01 1932.77,1246.25C1932.5,1245.49 1932,1244.96 1931.27,1244.68C1930.55,1244.4 1929.38,1244.23 1927.77,1244.16L1927.77,1242.83C1929.62,1242.96 1932.46,1243.02 1936.3,1243.02C1939.9,1243.02 1942.73,1242.96 1944.77,1242.83L1944.77,1244.16C1943.16,1244.23 1941.99,1244.4 1941.27,1244.68Z" style="fill:rgb(108,111,112);fill-rule:nonzero;"/>
            </g>
            <g transform="matrix(0.871912,0,0,0.997736,206.435,2.80215)">
                <path d="M2000.02,1244.75C2003.2,1246.66 2005.66,1249.43 2007.41,1253.07C2009.16,1256.7 2010.03,1261.02 2010.03,1266.04C2010.03,1270.94 2009.13,1275.28 2007.33,1279.06C2005.53,1282.83 2003.02,1285.76 1999.81,1287.85C1996.6,1289.93 1992.94,1290.97 1988.84,1290.97C1984.61,1290.97 1980.9,1290.02 1977.72,1288.11C1974.55,1286.2 1972.08,1283.42 1970.34,1279.79C1968.59,1276.15 1967.71,1271.83 1967.71,1266.82C1967.71,1261.91 1968.62,1257.57 1970.42,1253.8C1972.22,1250.02 1974.72,1247.09 1977.94,1245.01C1981.15,1242.92 1984.8,1241.88 1988.91,1241.88C1993.14,1241.88 1996.84,1242.84 2000.02,1244.75ZM1981.13,1246.07C1978.96,1248.05 1977.29,1250.82 1976.11,1254.37C1974.94,1257.91 1974.36,1261.98 1974.36,1266.56C1974.36,1271.18 1975.01,1275.25 1976.31,1278.77C1977.61,1282.28 1979.38,1284.99 1981.63,1286.9C1983.88,1288.81 1986.37,1289.77 1989.1,1289.77C1991.94,1289.77 1994.44,1288.78 1996.6,1286.79C1998.76,1284.8 2000.43,1282.04 2001.6,1278.49C2002.77,1274.94 2003.36,1270.88 2003.36,1266.3C2003.36,1261.67 2002.71,1257.61 2001.41,1254.09C2000.1,1250.58 1998.34,1247.86 1996.1,1245.95C1993.86,1244.04 1991.38,1243.09 1988.64,1243.09C1985.8,1243.09 1983.3,1244.08 1981.13,1246.07Z" style="fill:rgb(108,111,112);fill-rule:nonzero;"/>
            </g>
            <g transform="matrix(0.871912,0,0,0.997736,206.435,2.80215)">
                <path d="M2022.89,1285.45C2024.8,1288.24 2027.74,1289.64 2031.71,1289.64C2033.23,1289.64 2034.65,1289.32 2035.96,1288.69C2037.27,1288.06 2038.34,1287.08 2039.15,1285.75C2039.96,1284.41 2040.37,1282.75 2040.37,1280.75C2040.37,1279.04 2039.95,1277.5 2039.12,1276.14C2038.28,1274.79 2037.15,1273.55 2035.72,1272.42C2034.28,1271.29 2032.37,1270.01 2029.99,1268.58C2027.34,1266.99 2025.21,1265.57 2023.61,1264.31C2022,1263.05 2020.68,1261.55 2019.65,1259.8C2018.62,1258.06 2018.11,1256 2018.11,1253.63C2018.11,1251.12 2018.67,1248.99 2019.81,1247.25C2020.95,1245.52 2022.47,1244.22 2024.37,1243.37C2026.27,1242.51 2028.36,1242.08 2030.64,1242.08C2032.01,1242.08 2033.18,1242.19 2034.17,1242.42C2035.16,1242.65 2035.98,1242.93 2036.63,1243.27C2037.28,1243.6 2037.99,1244.03 2038.78,1244.55C2039.77,1245.18 2040.53,1245.5 2041.05,1245.5C2041.47,1245.5 2041.78,1245.26 2042,1244.8C2042.22,1244.33 2042.39,1243.59 2042.52,1242.57L2044.05,1242.57C2043.83,1245.17 2043.72,1249.71 2043.72,1256.17L2042.19,1256.17C2042.02,1253.89 2041.53,1251.79 2040.71,1249.86C2039.9,1247.93 2038.71,1246.36 2037.13,1245.15C2035.56,1243.95 2033.6,1243.35 2031.26,1243.35C2029.69,1243.35 2028.29,1243.67 2027.06,1244.33C2025.82,1244.98 2024.85,1245.89 2024.16,1247.06C2023.47,1248.23 2023.12,1249.58 2023.12,1251.1C2023.12,1253.5 2023.85,1255.45 2025.3,1256.92C2026.75,1258.4 2028.45,1259.73 2030.39,1260.91C2032.34,1262.09 2033.64,1262.89 2034.32,1263.3C2037.12,1265.06 2039.33,1266.59 2040.96,1267.88C2042.58,1269.17 2043.89,1270.66 2044.86,1272.37C2045.84,1274.07 2046.33,1276.05 2046.33,1278.31C2046.33,1281.04 2045.7,1283.36 2044.44,1285.26C2043.18,1287.16 2041.48,1288.59 2039.35,1289.54C2037.21,1290.49 2034.82,1290.97 2032.17,1290.97C2030.04,1290.97 2028.29,1290.75 2026.93,1290.31C2025.56,1289.86 2024.27,1289.26 2023.05,1288.5C2022.05,1287.87 2021.3,1287.55 2020.77,1287.55C2020.36,1287.55 2020.05,1287.79 2019.83,1288.25C2019.61,1288.72 2019.44,1289.46 2019.31,1290.48L2017.78,1290.48C2017.95,1288.05 2018.04,1282.73 2018.04,1274.5L2019.57,1274.5C2019.87,1279.01 2020.98,1282.67 2022.89,1285.45ZM2037.2,1233.08C2034.99,1234.65 2033.37,1236.31 2032.33,1238.04L2031.13,1238.04C2030.06,1236.31 2028.43,1234.65 2026.23,1233.08C2024.02,1231.51 2021.5,1230.22 2018.66,1229.22L2018.98,1228.31C2021.63,1228.85 2024.25,1229.56 2026.85,1230.42C2029.44,1231.29 2031.51,1232.14 2033.05,1232.96C2034.33,1232.14 2036.01,1231.29 2038.11,1230.42C2040.2,1229.56 2042.31,1228.85 2044.44,1228.31L2044.8,1229.22C2041.93,1230.22 2039.4,1231.51 2037.2,1233.08Z" style="fill:rgb(108,111,112);fill-rule:nonzero;"/>
            </g>
            <g transform="matrix(0.871912,0,0,0.997736,206.435,2.80215)">
                <path d="M2089.78,1287.26C2090.7,1287.89 2091.82,1288.37 2093.17,1288.69L2093.17,1290.03C2091.07,1289.9 2088.41,1289.83 2085.2,1289.83C2082.79,1289.83 2080.5,1289.9 2078.33,1290.03L2078.33,1288.69C2079.37,1288.65 2080.14,1288.52 2080.64,1288.3C2081.14,1288.09 2081.39,1287.75 2081.39,1287.29C2081.39,1286.88 2081.16,1286.35 2080.7,1285.7L2070.97,1271.02C2070.08,1269.65 2069.31,1268.64 2068.66,1267.99C2068.01,1267.34 2067.34,1266.89 2066.66,1266.64C2065.97,1266.39 2065.08,1266.23 2063.97,1266.17L2063.97,1282.96C2063.97,1284.63 2064.11,1285.85 2064.38,1286.61C2064.65,1287.37 2065.15,1287.89 2065.88,1288.17C2066.6,1288.45 2067.77,1288.63 2069.37,1288.69L2069.37,1290.03C2067.33,1289.9 2064.51,1289.83 2060.91,1289.83C2057.09,1289.83 2054.25,1289.9 2052.38,1290.03L2052.38,1288.69C2053.99,1288.63 2055.16,1288.45 2055.88,1288.17C2056.61,1287.89 2057.11,1287.37 2057.38,1286.61C2057.65,1285.85 2057.79,1284.63 2057.79,1282.96L2057.79,1249.89C2057.79,1248.22 2057.65,1247.01 2057.38,1246.25C2057.11,1245.49 2056.61,1244.96 2055.88,1244.68C2055.16,1244.4 2053.99,1244.23 2052.38,1244.16L2052.38,1242.83C2054.23,1242.96 2057.07,1243.02 2060.91,1243.02C2064.51,1243.02 2067.33,1242.96 2069.37,1242.83L2069.37,1244.16C2067.77,1244.23 2066.6,1244.4 2065.88,1244.68C2065.15,1244.96 2064.65,1245.49 2064.38,1246.25C2064.11,1247.01 2063.97,1248.22 2063.97,1249.89L2063.97,1264.83C2067.2,1264.7 2069.74,1263.45 2071.59,1261.09L2077.97,1252.95C2080.25,1250.07 2081.39,1247.94 2081.39,1246.57C2081.39,1245.03 2080.01,1244.23 2077.25,1244.16L2077.25,1242.83C2079.79,1242.96 2082.34,1243.02 2084.9,1243.02C2087.38,1243.02 2089.28,1242.96 2090.6,1242.83L2090.6,1244.16C2089.12,1244.38 2087.74,1244.86 2086.45,1245.59C2085.16,1246.33 2083.91,1247.47 2082.72,1249.01L2071.85,1262.94L2087.31,1284.62C2088.05,1285.75 2088.87,1286.63 2089.78,1287.26Z" style="fill:rgb(108,111,112);fill-rule:nonzero;"/>
            </g>
            <g transform="matrix(0.871912,0,0,0.997736,206.435,2.80215)">
                <path d="M2135.68,1288.69L2135.68,1290.03C2133.86,1289.9 2131.47,1289.83 2128.52,1289.83C2124.72,1289.83 2121.88,1289.9 2119.99,1290.03L2119.99,1288.69C2121.69,1288.63 2122.89,1288.42 2123.62,1288.08C2124.35,1287.73 2124.71,1287.11 2124.71,1286.22C2124.71,1285.46 2124.45,1284.42 2123.93,1283.09L2119.83,1272.16L2103.75,1272.16L2101.01,1279.22C2100.12,1281.48 2099.68,1283.3 2099.68,1284.69C2099.68,1286.1 2100.15,1287.11 2101.1,1287.72C2102.04,1288.32 2103.5,1288.65 2105.47,1288.69L2105.47,1290.03C2102.94,1289.9 2100.38,1289.83 2097.79,1289.83C2095.8,1289.83 2094.14,1289.9 2092.81,1290.03L2092.81,1288.69C2095.03,1288.19 2096.77,1286.26 2098.05,1282.9L2113.74,1242.5L2114.82,1242.5L2131.06,1284.43C2132.15,1287.18 2133.69,1288.61 2135.68,1288.69ZM2111.89,1250.93L2104.24,1270.82L2119.34,1270.82L2111.89,1250.93Z" style="fill:rgb(108,111,112);fill-rule:nonzero;"/>
            </g>
            <g transform="matrix(0.871912,0,0,0.997736,206.435,2.80215)">
                <path d="M2187.68,1244.75C2190.86,1246.66 2193.33,1249.43 2195.07,1253.07C2196.82,1256.7 2197.7,1261.02 2197.7,1266.04C2197.7,1270.94 2196.79,1275.28 2194.99,1279.06C2193.19,1282.83 2190.68,1285.76 2187.47,1287.85C2184.26,1289.93 2180.61,1290.97 2176.5,1290.97C2172.27,1290.97 2168.57,1290.02 2165.39,1288.11C2162.21,1286.2 2159.74,1283.42 2158,1279.79C2156.25,1276.15 2155.38,1271.83 2155.38,1266.82C2155.38,1261.91 2156.28,1257.57 2158.08,1253.8C2159.88,1250.02 2162.39,1247.09 2165.6,1245.01C2168.81,1242.92 2172.47,1241.88 2176.57,1241.88C2180.8,1241.88 2184.51,1242.84 2187.68,1244.75ZM2168.79,1246.07C2166.62,1248.05 2164.95,1250.82 2163.78,1254.37C2162.6,1257.91 2162.02,1261.98 2162.02,1266.56C2162.02,1271.18 2162.67,1275.25 2163.97,1278.77C2165.27,1282.28 2167.05,1284.99 2169.29,1286.9C2171.54,1288.81 2174.03,1289.77 2176.76,1289.77C2179.61,1289.77 2182.11,1288.78 2184.27,1286.79C2186.43,1284.8 2188.09,1282.04 2189.26,1278.49C2190.44,1274.94 2191.02,1270.88 2191.02,1266.3C2191.02,1261.67 2190.37,1257.61 2189.07,1254.09C2187.77,1250.58 2186,1247.86 2183.76,1245.95C2181.53,1244.04 2179.04,1243.09 2176.31,1243.09C2173.47,1243.09 2170.96,1244.08 2168.79,1246.07Z" style="fill:rgb(108,111,112);fill-rule:nonzero;"/>
            </g>
            <g transform="matrix(0.871912,0,0,0.997736,206.435,2.80215)">
                <path d="M2241.64,1289.96C2240.62,1290.64 2239.28,1290.97 2237.6,1290.97C2235.78,1290.97 2234.28,1290.44 2233.11,1289.38C2231.94,1288.31 2231.05,1286.44 2230.44,1283.75L2228.98,1277.11C2228.46,1274.78 2227.96,1273 2227.5,1271.75C2227.03,1270.5 2226.32,1269.5 2225.38,1268.76C2224.44,1268.01 2223.13,1267.63 2221.46,1267.63L2215.11,1267.63L2215.11,1282.96C2215.11,1284.63 2215.25,1285.85 2215.52,1286.61C2215.79,1287.37 2216.29,1287.89 2217.01,1288.17C2217.74,1288.45 2218.91,1288.63 2220.51,1288.69L2220.51,1290.03C2218.47,1289.9 2215.65,1289.83 2212.05,1289.83C2208.23,1289.83 2205.39,1289.9 2203.52,1290.03L2203.52,1288.69C2205.13,1288.63 2206.29,1288.45 2207.02,1288.17C2207.75,1287.89 2208.25,1287.37 2208.52,1286.61C2208.79,1285.85 2208.93,1284.63 2208.93,1282.96L2208.93,1249.89C2208.93,1248.22 2208.79,1247.01 2208.52,1246.25C2208.25,1245.49 2207.75,1244.96 2207.02,1244.68C2206.29,1244.4 2205.13,1244.23 2203.52,1244.16L2203.52,1242.83C2205.39,1242.96 2208.1,1243.02 2211.66,1243.02C2213.4,1243.02 2215.31,1243 2217.41,1242.96C2219.5,1242.91 2220.94,1242.89 2221.72,1242.89C2225.19,1242.89 2228.13,1243.4 2230.54,1244.41C2232.95,1245.41 2234.76,1246.79 2235.98,1248.54C2237.19,1250.29 2237.8,1252.27 2237.8,1254.48C2237.8,1256.22 2237.39,1257.97 2236.58,1259.74C2235.76,1261.51 2234.39,1263.09 2232.44,1264.49C2230.5,1265.89 2227.97,1266.83 2224.84,1267.31L2225.66,1267.44C2227.65,1267.76 2229.25,1268.26 2230.44,1268.92C2231.64,1269.58 2232.59,1270.49 2233.29,1271.64C2234,1272.79 2234.57,1274.32 2235,1276.23L2236.66,1283.03C2236.94,1284.4 2237.23,1285.46 2237.52,1286.24C2237.82,1287.01 2238.16,1287.58 2238.56,1287.94C2238.97,1288.31 2239.47,1288.5 2240.08,1288.5C2240.82,1288.5 2241.42,1288.31 2241.9,1287.93C2242.38,1287.55 2242.99,1286.89 2243.72,1285.96L2244.73,1286.71C2243.69,1288.2 2242.66,1289.29 2241.64,1289.96ZM2226.63,1264.87C2228.33,1263.91 2229.5,1262.63 2230.15,1261.02C2230.8,1259.42 2231.13,1257.49 2231.13,1255.23C2231.13,1251.58 2230.26,1248.83 2228.52,1246.96C2226.78,1245.1 2223.96,1244.16 2220.06,1244.16C2218.67,1244.16 2217.63,1244.32 2216.93,1244.63C2216.24,1244.95 2215.76,1245.51 2215.5,1246.31C2215.24,1247.11 2215.11,1248.31 2215.11,1249.89L2215.11,1266.3L2219.6,1266.3C2222.6,1266.3 2224.94,1265.82 2226.63,1264.87Z" style="fill:rgb(108,111,112);fill-rule:nonzero;"/>
            </g>
            <g transform="matrix(0.871912,0,0,0.997736,206.435,2.80215)">
                <path d="M2253.23,1243.06L2254.86,1243.02C2260.98,1242.89 2264.33,1242.83 2264.91,1242.83C2272.77,1242.83 2278.66,1244.79 2282.57,1248.72C2286.49,1252.65 2288.45,1258.38 2288.45,1265.91C2288.45,1270.75 2287.5,1274.98 2285.6,1278.62C2283.7,1282.25 2280.94,1285.06 2277.32,1287.05C2273.69,1289.04 2269.36,1290.03 2264.33,1290.03C2263.72,1290.03 2262.27,1290 2259.98,1289.93C2257.69,1289.87 2256.03,1289.83 2254.99,1289.83C2251.34,1289.83 2248.58,1289.9 2246.72,1290.03L2246.72,1288.69C2248.32,1288.63 2249.49,1288.45 2250.22,1288.17C2250.94,1287.89 2251.44,1287.37 2251.72,1286.61C2251.99,1285.85 2252.12,1284.63 2252.12,1282.96L2252.12,1249.89C2252.12,1248.22 2251.99,1247.01 2251.72,1246.25C2251.44,1245.49 2250.94,1244.96 2250.22,1244.68C2249.49,1244.4 2248.32,1244.23 2246.72,1244.16L2246.72,1242.83C2249.11,1242.98 2251.28,1243.06 2253.23,1243.06ZM2258.7,1286.69C2258.96,1287.48 2259.44,1288.04 2260.15,1288.35C2260.85,1288.67 2261.91,1288.82 2263.32,1288.82C2268.05,1288.82 2271.76,1287.97 2274.45,1286.25C2277.14,1284.54 2279.04,1282.04 2280.13,1278.75C2281.23,1275.46 2281.78,1271.27 2281.78,1266.17C2281.78,1261.05 2281.18,1256.87 2279.99,1253.65C2278.79,1250.43 2276.85,1248.02 2274.14,1246.42C2271.44,1244.83 2267.81,1244.03 2263.26,1244.03C2261.87,1244.03 2260.82,1244.19 2260.13,1244.5C2259.43,1244.82 2258.96,1245.38 2258.7,1246.18C2258.44,1246.98 2258.31,1248.18 2258.31,1249.76L2258.31,1283.09C2258.31,1284.7 2258.44,1285.9 2258.7,1286.69Z" style="fill:rgb(108,111,112);fill-rule:nonzero;"/>
            </g>
            <g transform="matrix(0.871912,0,0,0.997736,206.435,2.80215)">
                <path d="M2307.84,1244.68C2307.11,1244.96 2306.61,1245.49 2306.34,1246.25C2306.07,1247.01 2305.93,1248.22 2305.93,1249.89L2305.93,1282.96C2305.93,1284.63 2306.07,1285.85 2306.34,1286.61C2306.61,1287.37 2307.11,1287.89 2307.84,1288.17C2308.56,1288.45 2309.73,1288.63 2311.33,1288.69L2311.33,1290.03C2309.29,1289.9 2306.47,1289.83 2302.87,1289.83C2299.05,1289.83 2296.21,1289.9 2294.34,1290.03L2294.34,1288.69C2295.95,1288.63 2297.11,1288.45 2297.84,1288.17C2298.57,1287.89 2299.07,1287.37 2299.34,1286.61C2299.61,1285.85 2299.74,1284.63 2299.74,1282.96L2299.74,1249.89C2299.74,1248.22 2299.61,1247.01 2299.34,1246.25C2299.07,1245.49 2298.57,1244.96 2297.84,1244.68C2297.11,1244.4 2295.95,1244.23 2294.34,1244.16L2294.34,1242.83C2296.19,1242.96 2299.03,1243.02 2302.87,1243.02C2306.47,1243.02 2309.29,1242.96 2311.33,1242.83L2311.33,1244.16C2309.73,1244.23 2308.56,1244.4 2307.84,1244.68Z" style="fill:rgb(108,111,112);fill-rule:nonzero;"/>
            </g>
            <g transform="matrix(0.871912,0,0,0.997736,206.435,2.80215)">
                <path d="M2355.36,1244.83C2354.61,1245.21 2354.1,1245.83 2353.81,1246.7C2353.53,1247.57 2353.39,1248.86 2353.39,1250.58L2353.39,1290.35L2351.86,1290.35L2323.87,1247.09L2323.87,1282.28C2323.87,1284 2324.02,1285.29 2324.32,1286.15C2324.63,1287.02 2325.2,1287.65 2326.03,1288.03C2326.87,1288.41 2328.16,1288.63 2329.92,1288.69L2329.92,1290.03C2328.34,1289.9 2326.07,1289.83 2323.12,1289.83C2320.47,1289.83 2318.41,1289.9 2316.93,1290.03L2316.93,1288.69C2318.47,1288.63 2319.62,1288.41 2320.37,1288.03C2321.12,1287.65 2321.63,1287.02 2321.91,1286.15C2322.2,1285.29 2322.34,1284 2322.34,1282.28L2322.34,1249.89C2322.34,1248.22 2322.2,1247.01 2321.93,1246.25C2321.66,1245.49 2321.16,1244.96 2320.43,1244.68C2319.7,1244.4 2318.54,1244.23 2316.93,1244.16L2316.93,1242.83C2318.39,1242.96 2320.45,1243.02 2323.12,1243.02C2325.11,1243.02 2326.85,1242.96 2328.33,1242.83L2351.86,1279.09L2351.86,1250.58C2351.86,1248.86 2351.72,1247.57 2351.42,1246.7C2351.13,1245.83 2350.56,1245.21 2349.71,1244.83C2348.87,1244.45 2347.56,1244.23 2345.81,1244.16L2345.81,1242.83C2347.39,1242.96 2349.66,1243.02 2352.61,1243.02C2355.26,1243.02 2357.32,1242.96 2358.8,1242.83L2358.8,1244.16C2357.25,1244.23 2356.11,1244.45 2355.36,1244.83Z" style="fill:rgb(108,111,112);fill-rule:nonzero;"/>
            </g>
            <g transform="matrix(0.871912,0,0,0.997736,206.435,2.80215)">
                <path d="M2403.26,1288.69L2403.26,1290.03C2401.44,1289.9 2399.05,1289.83 2396.1,1289.83C2392.3,1289.83 2389.46,1289.9 2387.57,1290.03L2387.57,1288.69C2389.26,1288.63 2390.47,1288.42 2391.2,1288.08C2391.93,1287.73 2392.29,1287.11 2392.29,1286.22C2392.29,1285.46 2392.03,1284.42 2391.51,1283.09L2387.41,1272.16L2371.33,1272.16L2368.59,1279.22C2367.7,1281.48 2367.26,1283.3 2367.26,1284.69C2367.26,1286.1 2367.73,1287.11 2368.67,1287.72C2369.62,1288.32 2371.08,1288.65 2373.05,1288.69L2373.05,1290.03C2370.51,1289.9 2367.95,1289.83 2365.37,1289.83C2363.37,1289.83 2361.71,1289.9 2360.39,1290.03L2360.39,1288.69C2362.6,1288.19 2364.35,1286.26 2365.63,1282.9L2381.32,1242.5L2382.39,1242.5L2398.64,1284.43C2399.72,1287.18 2401.26,1288.61 2403.26,1288.69ZM2379.47,1250.93L2371.82,1270.82L2386.92,1270.82L2379.47,1250.93Z" style="fill:rgb(108,111,112);fill-rule:nonzero;"/>
            </g>
            <g transform="matrix(0.871912,0,0,0.997736,206.435,2.80215)">
                <path d="M2441.62,1287.02C2441.37,1286.4 2441.01,1286.09 2440.53,1286.09C2440.19,1286.09 2439.73,1286.27 2439.17,1286.64C2437.84,1287.58 2436.62,1288.34 2435.5,1288.94C2434.39,1289.53 2433.11,1290.02 2431.68,1290.4C2430.25,1290.78 2428.63,1290.97 2426.83,1290.97C2422.6,1290.97 2418.89,1290.02 2415.71,1288.11C2412.53,1286.2 2410.07,1283.42 2408.32,1279.79C2406.58,1276.15 2405.7,1271.83 2405.7,1266.82C2405.7,1261.91 2406.6,1257.57 2408.4,1253.8C2410.21,1250.02 2412.71,1247.09 2415.92,1245.01C2419.14,1242.92 2422.79,1241.88 2426.89,1241.88C2429.54,1241.88 2431.8,1242.26 2433.68,1243.02C2435.56,1243.78 2437.39,1244.85 2439.17,1246.21C2439.64,1246.6 2440.08,1246.8 2440.47,1246.8C2441.38,1246.8 2441.94,1245.48 2442.16,1242.83L2443.69,1242.83C2443.52,1245.71 2443.43,1250.82 2443.43,1258.16L2441.9,1258.16C2441.58,1256.16 2441.28,1254.61 2441.01,1253.5C2440.73,1252.4 2440.41,1251.46 2440.05,1250.69C2439.68,1249.92 2439.18,1249.12 2438.55,1248.3C2437.2,1246.56 2435.5,1245.26 2433.44,1244.39C2431.38,1243.52 2429.15,1243.09 2426.76,1243.09C2423.88,1243.09 2421.35,1244.04 2419.18,1245.95C2417.01,1247.86 2415.33,1250.59 2414.13,1254.12C2412.94,1257.66 2412.34,1261.81 2412.34,1266.56C2412.34,1271.4 2412.99,1275.55 2414.3,1279.03C2415.6,1282.5 2417.39,1285.13 2419.67,1286.93C2421.95,1288.74 2424.53,1289.64 2427.41,1289.64C2429.63,1289.64 2431.79,1289.21 2433.89,1288.37C2436,1287.52 2437.64,1286.25 2438.81,1284.56C2439.72,1283.34 2440.37,1282.03 2440.76,1280.6C2441.15,1279.18 2441.53,1276.99 2441.9,1274.01L2443.43,1274.01C2443.43,1281.67 2443.52,1287.01 2443.69,1290.03L2442.16,1290.03C2442.05,1288.64 2441.87,1287.63 2441.62,1287.02Z" style="fill:rgb(108,111,112);fill-rule:nonzero;"/>
            </g>
            <g transform="matrix(0.871912,0,0,0.997736,206.435,2.80215)">
                <path d="M2464.31,1244.68C2463.59,1244.96 2463.09,1245.49 2462.82,1246.25C2462.54,1247.01 2462.41,1248.22 2462.41,1249.89L2462.41,1282.96C2462.41,1284.63 2462.54,1285.85 2462.82,1286.61C2463.09,1287.37 2463.59,1287.89 2464.31,1288.17C2465.04,1288.45 2466.21,1288.63 2467.81,1288.69L2467.81,1290.03C2465.77,1289.9 2462.95,1289.83 2459.35,1289.83C2455.53,1289.83 2452.69,1289.9 2450.82,1290.03L2450.82,1288.69C2452.43,1288.63 2453.59,1288.45 2454.32,1288.17C2455.05,1287.89 2455.55,1287.37 2455.82,1286.61C2456.09,1285.85 2456.22,1284.63 2456.22,1282.96L2456.22,1249.89C2456.22,1248.22 2456.09,1247.01 2455.82,1246.25C2455.55,1245.49 2455.05,1244.96 2454.32,1244.68C2453.59,1244.4 2452.43,1244.23 2450.82,1244.16L2450.82,1242.83C2452.66,1242.96 2455.51,1243.02 2459.35,1243.02C2462.95,1243.02 2465.77,1242.96 2467.81,1242.83L2467.81,1244.16C2466.21,1244.23 2465.04,1244.4 2464.31,1244.68Z" style="fill:rgb(108,111,112);fill-rule:nonzero;"/>
            </g>
            <g transform="matrix(0.871912,0,0,0.997736,206.435,2.80215)">
                <path d="M2486.55,1244.68C2485.82,1244.96 2485.32,1245.49 2485.05,1246.25C2484.78,1247.01 2484.64,1248.22 2484.64,1249.89L2484.64,1274.31C2484.64,1278.08 2484.57,1281.43 2484.43,1284.35C2484.29,1287.27 2483.98,1289.71 2483.5,1291.69C2483,1293.77 2482.12,1295.63 2480.87,1297.27C2479.61,1298.91 2478.01,1300.2 2476.06,1301.14C2474.12,1302.09 2471.91,1302.56 2469.44,1302.56C2467.27,1302.56 2465.4,1302.16 2463.84,1301.36C2461.71,1300.25 2460.65,1298.72 2460.65,1296.77C2460.65,1295.73 2460.98,1294.87 2461.64,1294.21C2462.3,1293.55 2463.15,1293.22 2464.17,1293.22C2465.23,1293.22 2466.11,1293.54 2466.8,1294.19C2467.5,1294.85 2467.84,1295.73 2467.84,1296.83C2467.84,1297.76 2467.6,1298.52 2467.1,1299.09C2466.6,1299.67 2465.91,1300.04 2465.05,1300.22C2465.44,1300.61 2466.05,1300.88 2466.88,1301.05C2467.72,1301.21 2468.53,1301.29 2469.31,1301.29C2471.24,1301.29 2472.91,1300.79 2474.31,1299.79C2475.71,1298.8 2476.71,1297.41 2477.32,1295.63C2477.77,1294.24 2478.08,1292.51 2478.23,1290.43C2478.38,1288.36 2478.46,1285 2478.46,1280.36L2478.46,1249.89C2478.46,1248.22 2478.32,1247.01 2478.05,1246.25C2477.78,1245.49 2477.28,1244.96 2476.55,1244.68C2475.83,1244.4 2474.66,1244.23 2473.05,1244.16L2473.05,1242.83C2474.9,1242.96 2477.74,1243.02 2481.58,1243.02C2485.14,1243.02 2487.96,1242.96 2490.05,1242.83L2490.05,1244.16C2488.44,1244.23 2487.27,1244.4 2486.55,1244.68Z" style="fill:rgb(108,111,112);fill-rule:nonzero;"/>
            </g>
            <g transform="matrix(0.871912,0,0,0.997736,206.435,2.80215)">
                <path d="M2534.22,1288.69L2534.22,1290.03C2532.39,1289.9 2530.01,1289.83 2527.06,1289.83C2523.26,1289.83 2520.42,1289.9 2518.53,1290.03L2518.53,1288.69C2520.22,1288.63 2521.43,1288.42 2522.16,1288.08C2522.89,1287.73 2523.25,1287.11 2523.25,1286.22C2523.25,1285.46 2522.99,1284.42 2522.47,1283.09L2518.37,1272.16L2502.28,1272.16L2499.55,1279.22C2498.66,1281.48 2498.22,1283.3 2498.22,1284.69C2498.22,1286.1 2498.69,1287.11 2499.63,1287.72C2500.58,1288.32 2502.03,1288.65 2504.01,1288.69L2504.01,1290.03C2501.47,1289.9 2498.91,1289.83 2496.33,1289.83C2494.33,1289.83 2492.67,1289.9 2491.35,1290.03L2491.35,1288.69C2493.56,1288.19 2495.31,1286.26 2496.59,1282.9L2512.28,1242.5L2513.35,1242.5L2529.6,1284.43C2530.68,1287.18 2532.22,1288.61 2534.22,1288.69ZM2510.42,1250.93L2502.77,1270.82L2517.88,1270.82L2510.42,1250.93Z" style="fill:rgb(108,111,112);fill-rule:nonzero;"/>
            </g>
        </g>
        <g transform="matrix(-1.4041e-16,-0.873128,0.325897,-5.24082e-17,727.312,1490.6)">
            <g transform="matrix(0.373252,0,0,1,763.357,-3.0127e-12)">
                <path d="M1246.74,450.036C1246.74,453.385 1247.09,455.821 1247.78,457.344C1248.48,458.866 1249.74,459.91 1251.57,460.475C1253.39,461.041 1256.29,461.389 1260.24,461.519L1260.24,464.194C1255.63,463.933 1249.09,463.803 1240.6,463.803C1232.95,463.803 1227.25,463.933 1223.51,464.194L1223.51,461.519C1226.73,461.389 1229.07,461.041 1230.52,460.475C1231.98,459.91 1232.98,458.866 1233.53,457.344C1234.07,455.821 1234.34,453.385 1234.34,450.036L1234.34,383.749C1234.34,380.399 1234.07,377.964 1233.53,376.441C1232.98,374.919 1231.98,373.875 1230.52,373.31C1229.07,372.744 1226.73,372.396 1223.51,372.266L1223.51,369.591C1227.21,369.852 1232.64,369.982 1239.82,369.982C1243.3,369.982 1247.14,369.939 1251.34,369.852C1255.53,369.765 1258.42,369.721 1259.98,369.721C1266.99,369.721 1272.9,370.819 1277.73,373.016C1282.56,375.212 1286.18,378.29 1288.59,382.248C1291.01,386.206 1292.21,390.817 1292.21,396.08C1292.21,400.951 1291.12,405.649 1288.95,410.172C1286.78,414.696 1283.07,418.458 1277.83,421.46C1272.59,424.461 1265.66,425.961 1257.05,425.961L1246.74,425.961L1246.74,450.036ZM1273.81,416.305C1277.16,411.651 1278.84,405.388 1278.84,397.515C1278.84,391.774 1278.1,387.054 1276.62,383.357C1275.14,379.66 1272.78,376.887 1269.54,375.039C1266.3,373.19 1262,372.266 1256.65,372.266C1253.87,372.266 1251.78,372.581 1250.39,373.212C1249,373.842 1248.04,374.962 1247.52,376.572C1247,378.181 1246.74,380.573 1246.74,383.749L1246.74,423.286L1255.74,423.286C1264.44,423.286 1270.46,420.959 1273.81,416.305Z" style="fill:rgb(108,111,112);fill-rule:nonzero;"/>
            </g>
            <g transform="matrix(0.373252,0,0,1,763.357,-3.0127e-12)">
                <path d="M1378.07,464.064C1376.03,465.412 1373.33,466.086 1369.98,466.086C1366.33,466.086 1363.33,465.021 1360.98,462.889C1358.63,460.758 1356.85,456.996 1355.63,451.602L1352.69,438.292C1351.65,433.638 1350.66,430.061 1349.73,427.56C1348.79,425.059 1347.38,423.058 1345.48,421.557C1343.59,420.057 1340.97,419.306 1337.62,419.306L1324.9,419.306L1324.9,450.036C1324.9,453.385 1325.17,455.821 1325.71,457.344C1326.26,458.866 1327.26,459.91 1328.72,460.475C1330.17,461.041 1332.51,461.389 1335.73,461.519L1335.73,464.194C1331.64,463.933 1325.99,463.803 1318.77,463.803C1311.11,463.803 1305.41,463.933 1301.67,464.194L1301.67,461.519C1304.89,461.389 1307.23,461.041 1308.69,460.475C1310.14,459.91 1311.14,458.866 1311.69,457.344C1312.23,455.821 1312.5,453.385 1312.5,450.036L1312.5,383.749C1312.5,380.399 1312.23,377.964 1311.69,376.441C1311.14,374.919 1310.14,373.875 1308.69,373.31C1307.23,372.744 1304.89,372.396 1301.67,372.266L1301.67,369.591C1305.41,369.852 1310.85,369.982 1317.98,369.982C1321.46,369.982 1325.3,369.939 1329.5,369.852C1333.7,369.765 1336.58,369.721 1338.14,369.721C1345.1,369.721 1351,370.732 1355.83,372.755C1360.65,374.778 1364.29,377.54 1366.72,381.041C1369.16,384.542 1370.37,388.511 1370.37,392.948C1370.37,396.428 1369.56,399.94 1367.93,403.485C1366.3,407.03 1363.54,410.205 1359.64,413.01C1355.75,415.816 1350.67,417.697 1344.41,418.654L1346.04,418.915C1350.04,419.567 1353.24,420.557 1355.63,421.884C1358.02,423.21 1359.92,425.026 1361.34,427.331C1362.75,429.637 1363.89,432.703 1364.76,436.531L1368.09,450.167C1368.66,452.907 1369.23,455.049 1369.82,456.593C1370.41,458.137 1371.1,459.279 1371.91,460.019C1372.71,460.758 1373.72,461.128 1374.94,461.128C1376.42,461.128 1377.64,460.747 1378.6,459.986C1379.55,459.225 1380.77,457.909 1382.25,456.039L1384.27,457.539C1382.18,460.541 1380.12,462.715 1378.07,464.064ZM1348,413.761C1351.39,411.847 1353.74,409.281 1355.04,406.062C1356.35,402.843 1357,398.972 1357,394.449C1357,387.141 1355.26,381.617 1351.78,377.877C1348.3,374.136 1342.65,372.266 1334.82,372.266C1332.03,372.266 1329.94,372.581 1328.55,373.212C1327.16,373.842 1326.2,374.962 1325.68,376.572C1325.16,378.181 1324.9,380.573 1324.9,383.749L1324.9,416.631L1333.9,416.631C1339.91,416.631 1344.6,415.675 1348,413.761Z" style="fill:rgb(108,111,112);fill-rule:nonzero;"/>
            </g>
            <g transform="matrix(0.373252,0,0,1,763.357,-3.0127e-12)">
                <path d="M1454.51,373.44C1460.88,377.268 1465.82,382.824 1469.32,390.11C1472.82,397.395 1474.57,406.062 1474.57,416.11C1474.57,425.94 1472.76,434.639 1469.15,442.207C1465.54,449.775 1460.52,455.647 1454.08,459.823C1447.64,463.998 1440.32,466.086 1432.1,466.086C1423.61,466.086 1416.19,464.172 1409.81,460.345C1403.44,456.517 1398.51,450.961 1395,443.675C1391.5,436.389 1389.75,427.723 1389.75,417.675C1389.75,407.845 1391.56,399.146 1395.17,391.578C1398.78,384.01 1403.8,378.138 1410.24,373.962C1416.68,369.786 1424.01,367.699 1432.23,367.699C1440.71,367.699 1448.13,369.612 1454.51,373.44ZM1416.63,376.082C1412.28,380.062 1408.93,385.608 1406.59,392.72C1404.24,399.831 1403.06,407.976 1403.06,417.153C1403.06,426.418 1404.37,434.574 1406.98,441.62C1409.59,448.666 1413.14,454.103 1417.64,457.931C1422.14,461.758 1427.14,463.672 1432.62,463.672C1438.32,463.672 1443.33,461.682 1447.66,457.702C1451.98,453.723 1455.32,448.177 1457.67,441.065C1460.02,433.954 1461.19,425.809 1461.19,416.631C1461.19,407.367 1459.89,399.211 1457.28,392.165C1454.67,385.119 1451.12,379.682 1446.64,375.854C1442.16,372.026 1437.18,370.113 1431.7,370.113C1426.01,370.113 1420.98,372.103 1416.63,376.082Z" style="fill:rgb(108,111,112);fill-rule:nonzero;"/>
            </g>
        </g>
    </g>
</svg>
